<?xml version="1.0" encoding="UTF-8"?>
<svg width="154px" height="46px" viewBox="0 0 154 46" version="1.1" xmlns="http://www.w3.org/2000/svg" xmlns:xlink="http://www.w3.org/1999/xlink">
    <!-- Generator: Sketch 61.2 (89653) - https://sketch.com -->
    <title>Untitled 5</title>
    <desc>Created with Sketch.</desc>
    <defs>
        <path d="M10.24,39.256 C11.3493333,39.256 12.4106667,39.1333333 13.424,38.888 C14.4373333,38.6426667 15.3333333,38.2533333 16.112,37.72 C16.8906667,37.1866667 17.5093333,36.488 17.968,35.624 C18.4266667,34.76 18.656,33.72 18.656,32.504 C18.656,31.4586667 18.4853333,30.5786667 18.144,29.864 C17.8026667,29.1493333 17.3173333,28.536 16.688,28.024 C16.0586667,27.512 15.2906667,27.0853333 14.384,26.744 C13.4773333,26.4026667 12.4693333,26.0826667 11.36,25.784 C10.5066667,25.5706667 9.75466667,25.368 9.104,25.176 C8.45333333,24.984 7.91466667,24.7706667 7.488,24.536 C7.06133333,24.3013333 6.736,24.0293333 6.512,23.72 C6.288,23.4106667 6.176,23.0213333 6.176,22.552 C6.176,21.7413333 6.47466667,21.112 7.072,20.664 C7.66933333,20.216 8.576,19.992 9.792,19.992 C10.4746667,19.992 11.1466667,20.0773333 11.808,20.248 C12.4693333,20.4186667 13.0826667,20.6266667 13.648,20.872 C14.2133333,21.1173333 14.6933333,21.368 15.088,21.624 C15.4826667,21.88 15.7546667,22.0826667 15.904,22.232 L15.904,22.232 L17.856,18.648 C16.8533333,17.9653333 15.68,17.3733333 14.336,16.872 C12.992,16.3706667 11.52,16.12 9.92,16.12 C8.768,16.12 7.69066667,16.2746667 6.688,16.584 C5.68533333,16.8933333 4.80533333,17.3466667 4.048,17.944 C3.29066667,18.5413333 2.69866667,19.288 2.272,20.184 C1.84533333,21.08 1.632,22.104 1.632,23.256 C1.632,24.1306667 1.76533333,24.8826667 2.032,25.512 C2.29866667,26.1413333 2.69866667,26.696 3.232,27.176 C3.76533333,27.656 4.432,28.072 5.232,28.424 C6.032,28.776 6.976,29.1013333 8.064,29.4 C8.96,29.656 9.77066667,29.8906667 10.496,30.104 C11.2213333,30.3173333 11.84,30.552 12.352,30.808 C12.864,31.064 13.2586667,31.3626667 13.536,31.704 C13.8133333,32.0453333 13.952,32.4613333 13.952,32.952 C13.952,34.5093333 12.736,35.288 10.304,35.288 C9.42933333,35.288 8.576,35.1813333 7.744,34.968 C6.912,34.7546667 6.15466667,34.4933333 5.472,34.184 C4.78933333,33.8746667 4.19733333,33.5653333 3.696,33.256 C3.19466667,32.9466667 2.848,32.696 2.656,32.504 L2.656,32.504 L0.704,36.312 C2.02666667,37.2506667 3.52,37.976 5.184,38.488 C6.848,39 8.53333333,39.256 10.24,39.256 Z M26.88,39.288 C27.7973333,39.288 28.672,39.16 29.504,38.904 C30.336,38.648 31.04,38.392 31.616,38.136 L31.616,38.136 L30.752,34.744 C30.496,34.8506667 30.1546667,34.9786667 29.728,35.128 C29.3013333,35.2773333 28.864,35.352 28.416,35.352 C27.968,35.352 27.5893333,35.2293333 27.28,34.984 C26.9706667,34.7386667 26.816,34.3173333 26.816,33.72 L26.816,33.72 L26.816,25.528 L30.336,25.528 L30.336,22.232 L26.816,22.232 L26.816,16.792 L22.528,16.792 L22.528,22.232 L20.32,22.232 L20.32,25.528 L22.528,25.528 L22.528,35.16 C22.528,35.9066667 22.6453333,36.5413333 22.88,37.064 C23.1146667,37.5866667 23.4293333,38.0133333 23.824,38.344 C24.2186667,38.6746667 24.6773333,38.9146667 25.2,39.064 C25.7226667,39.2133333 26.2826667,39.288 26.88,39.288 Z M38.432,39.32 C39.648,39.32 40.7893333,39.064 41.856,38.552 C42.9226667,38.04 43.8293333,37.2933333 44.576,36.312 L44.576,36.312 L44.672,37.24 C44.7786667,37.8373333 45.0506667,38.3173333 45.488,38.68 C45.9253333,39.0426667 46.5493333,39.224 47.36,39.224 C47.8933333,39.224 48.5226667,39.1493333 49.248,39 L49.248,39 L49.248,35.352 C48.8853333,35.3306667 48.624,35.224 48.464,35.032 C48.304,34.84 48.224,34.52 48.224,34.072 L48.224,34.072 L48.224,28.856 C48.224,26.616 47.5573333,24.904 46.224,23.72 C44.8906667,22.536 43.0186667,21.944 40.608,21.944 C38.112,21.944 35.7866667,22.6586667 33.632,24.088 L33.632,24.088 L34.944,26.808 C35.84,26.1893333 36.7146667,25.72 37.568,25.4 C38.4213333,25.08 39.296,24.92 40.192,24.92 C41.4293333,24.92 42.3626667,25.2186667 42.992,25.816 C43.6213333,26.4133333 43.936,27.2666667 43.936,28.376 L43.936,28.376 L43.936,29.336 C43.3813333,29.1013333 42.7466667,28.92 42.032,28.792 C41.3173333,28.664 40.5866667,28.6 39.84,28.6 C38.7946667,28.6 37.8346667,28.7333333 36.96,29 C36.0853333,29.2666667 35.3333333,29.6346667 34.704,30.104 C34.0746667,30.5733333 33.584,31.144 33.232,31.816 C32.88,32.488 32.704,33.2186667 32.704,34.008 C32.704,34.776 32.848,35.48 33.136,36.12 C33.424,36.76 33.824,37.32 34.336,37.8 C34.848,38.28 35.456,38.6533333 36.16,38.92 C36.864,39.1866667 37.6213333,39.32 38.432,39.32 Z M39.648,36.184 C38.8373333,36.184 38.1546667,35.944 37.6,35.464 C37.0453333,34.984 36.768,34.3813333 36.768,33.656 C36.768,32.888 37.12,32.2533333 37.824,31.752 C38.528,31.2506667 39.4346667,31 40.544,31 C41.0986667,31 41.6746667,31.0586667 42.272,31.176 C42.8693333,31.2933333 43.424,31.448 43.936,31.64 L43.936,31.64 L43.936,33.56 C43.936,34.008 43.7013333,34.4133333 43.232,34.776 C42.8693333,35.2026667 42.3626667,35.544 41.712,35.8 C41.0613333,36.056 40.3733333,36.184 39.648,36.184 Z M56.512,39 L56.512,28.856 C56.96,27.896 57.696,27.176 58.72,26.696 C59.744,26.216 60.9066667,25.9653333 62.208,25.944 L62.208,25.944 L62.208,22.04 C62.1013333,22.0186667 61.9893333,22.008 61.872,22.008 L61.872,22.008 L61.344,22.008 C60.896,22.008 60.432,22.0986667 59.952,22.28 C59.472,22.4613333 58.9973333,22.7226667 58.528,23.064 C58.0586667,23.4053333 57.6213333,23.8053333 57.216,24.264 C56.8106667,24.7226667 56.4586667,25.24 56.16,25.816 L56.16,25.816 L56.16,22.232 L52.224,22.232 L52.224,39 L56.512,39 Z M68.896,39 L68.896,28.856 C69.344,27.896 70.08,27.176 71.104,26.696 C72.128,26.216 73.2906667,25.9653333 74.592,25.944 L74.592,25.944 L74.592,22.04 C74.4853333,22.0186667 74.3733333,22.008 74.256,22.008 L74.256,22.008 L73.728,22.008 C73.28,22.008 72.816,22.0986667 72.336,22.28 C71.856,22.4613333 71.3813333,22.7226667 70.912,23.064 C70.4426667,23.4053333 70.0053333,23.8053333 69.6,24.264 C69.1946667,24.7226667 68.8426667,25.24 68.544,25.816 L68.544,25.816 L68.544,22.232 L64.608,22.232 L64.608,39 L68.896,39 Z M81.568,39.32 C82.784,39.32 83.9253333,39.064 84.992,38.552 C86.0586667,38.04 86.9653333,37.2933333 87.712,36.312 L87.712,36.312 L87.808,37.24 C87.9146667,37.8373333 88.1866667,38.3173333 88.624,38.68 C89.0613333,39.0426667 89.6853333,39.224 90.496,39.224 C91.0293333,39.224 91.6586667,39.1493333 92.384,39 L92.384,39 L92.384,35.352 C92.0213333,35.3306667 91.76,35.224 91.6,35.032 C91.44,34.84 91.36,34.52 91.36,34.072 L91.36,34.072 L91.36,28.856 C91.36,26.616 90.6933333,24.904 89.36,23.72 C88.0266667,22.536 86.1546667,21.944 83.744,21.944 C81.248,21.944 78.9226667,22.6586667 76.768,24.088 L76.768,24.088 L78.08,26.808 C78.976,26.1893333 79.8506667,25.72 80.704,25.4 C81.5573333,25.08 82.432,24.92 83.328,24.92 C84.5653333,24.92 85.4986667,25.2186667 86.128,25.816 C86.7573333,26.4133333 87.072,27.2666667 87.072,28.376 L87.072,28.376 L87.072,29.336 C86.5173333,29.1013333 85.8826667,28.92 85.168,28.792 C84.4533333,28.664 83.7226667,28.6 82.976,28.6 C81.9306667,28.6 80.9706667,28.7333333 80.096,29 C79.2213333,29.2666667 78.4693333,29.6346667 77.84,30.104 C77.2106667,30.5733333 76.72,31.144 76.368,31.816 C76.016,32.488 75.84,33.2186667 75.84,34.008 C75.84,34.776 75.984,35.48 76.272,36.12 C76.56,36.76 76.96,37.32 77.472,37.8 C77.984,38.28 78.592,38.6533333 79.296,38.92 C80,39.1866667 80.7573333,39.32 81.568,39.32 Z M82.784,36.184 C81.9733333,36.184 81.2906667,35.944 80.736,35.464 C80.1813333,34.984 79.904,34.3813333 79.904,33.656 C79.904,32.888 80.256,32.2533333 80.96,31.752 C81.664,31.2506667 82.5706667,31 83.68,31 C84.2346667,31 84.8106667,31.0586667 85.408,31.176 C86.0053333,31.2933333 86.56,31.448 87.072,31.64 L87.072,31.64 L87.072,33.56 C87.072,34.008 86.8373333,34.4133333 86.368,34.776 C86.0053333,35.2026667 85.4986667,35.544 84.848,35.8 C84.1973333,36.056 83.5093333,36.184 82.784,36.184 Z M100.672,39.288 C101.589333,39.288 102.464,39.16 103.296,38.904 C104.128,38.648 104.832,38.392 105.408,38.136 L105.408,38.136 L104.544,34.744 C104.288,34.8506667 103.946667,34.9786667 103.52,35.128 C103.093333,35.2773333 102.656,35.352 102.208,35.352 C101.76,35.352 101.381333,35.2293333 101.072,34.984 C100.762667,34.7386667 100.608,34.3173333 100.608,33.72 L100.608,33.72 L100.608,25.528 L104.128,25.528 L104.128,22.232 L100.608,22.232 L100.608,16.792 L96.32,16.792 L96.32,22.232 L94.112,22.232 L94.112,25.528 L96.32,25.528 L96.32,35.16 C96.32,35.9066667 96.4373333,36.5413333 96.672,37.064 C96.9066667,37.5866667 97.2213333,38.0133333 97.616,38.344 C98.0106667,38.6746667 98.4693333,38.9146667 98.992,39.064 C99.5146667,39.2133333 100.074667,39.288 100.672,39.288 Z M115.424,39.32 C117.301333,39.32 118.917333,38.9093333 120.272,38.088 C121.626667,37.2666667 122.613333,36.216 123.232,34.936 L123.232,34.936 L119.552,33.912 C119.274667,34.5946667 118.757333,35.144 118,35.56 C117.242667,35.976 116.437333,36.184 115.584,36.184 C115.029333,36.184 114.496,36.088 113.984,35.896 C113.472,35.704 113.013333,35.4266667 112.608,35.064 C112.202667,34.7013333 111.872,34.264 111.616,33.752 C111.36,33.24 111.2,32.6533333 111.136,31.992 L111.136,31.992 L124.096,31.992 C124.138667,31.8213333 124.165333,31.608 124.176,31.352 C124.186667,31.096 124.192,30.8293333 124.192,30.552 C124.192,29.4213333 123.994667,28.3333333 123.6,27.288 C123.205333,26.2426667 122.629333,25.3253333 121.872,24.536 C121.114667,23.7466667 120.197333,23.1173333 119.12,22.648 C118.042667,22.1786667 116.821333,21.944 115.456,21.944 C114.090667,21.944 112.858667,22.1786667 111.76,22.648 C110.661333,23.1173333 109.728,23.752 108.96,24.552 C108.192,25.352 107.605333,26.28 107.2,27.336 C106.794667,28.392 106.592,29.5173333 106.592,30.712 C106.592,31.864 106.8,32.9626667 107.216,34.008 C107.632,35.0533333 108.224,35.9706667 108.992,36.76 C109.76,37.5493333 110.688,38.1733333 111.776,38.632 C112.864,39.0906667 114.08,39.32 115.424,39.32 Z M119.776,29.208 L111.072,29.208 C111.114667,28.5893333 111.258667,28.024 111.504,27.512 C111.749333,27 112.064,26.5626667 112.448,26.2 C112.832,25.8373333 113.274667,25.5546667 113.776,25.352 C114.277333,25.1493333 114.816,25.048 115.392,25.048 C116.565333,25.048 117.562667,25.4266667 118.384,26.184 C119.205333,26.9413333 119.669333,27.9493333 119.776,29.208 L119.776,29.208 Z M131.104,39 L131.104,28.856 C131.552,27.896 132.288,27.176 133.312,26.696 C134.336,26.216 135.498667,25.9653333 136.8,25.944 L136.8,25.944 L136.8,22.04 C136.693333,22.0186667 136.581333,22.008 136.464,22.008 L136.464,22.008 L135.936,22.008 C135.488,22.008 135.024,22.0986667 134.544,22.28 C134.064,22.4613333 133.589333,22.7226667 133.12,23.064 C132.650667,23.4053333 132.213333,23.8053333 131.808,24.264 C131.402667,24.7226667 131.050667,25.24 130.752,25.816 L130.752,25.816 L130.752,22.232 L126.816,22.232 L126.816,39 L131.104,39 Z M145.536,39.32 C147.626667,39.32 149.28,38.8453333 150.496,37.896 C151.712,36.9466667 152.32,35.6506667 152.32,34.008 C152.32,33.304 152.197333,32.7013333 151.952,32.2 C151.706667,31.6986667 151.322667,31.256 150.8,30.872 C150.277333,30.488 149.605333,30.1466667 148.784,29.848 C147.962667,29.5493333 146.976,29.2506667 145.824,28.952 C145.205333,28.8026667 144.688,28.6586667 144.272,28.52 C143.856,28.3813333 143.52,28.2373333 143.264,28.088 C143.008,27.9386667 142.821333,27.768 142.704,27.576 C142.586667,27.384 142.528,27.1386667 142.528,26.84 C142.528,26.1786667 142.773333,25.6986667 143.264,25.4 C143.754667,25.1013333 144.362667,24.952 145.088,24.952 C145.877333,24.952 146.672,25.1013333 147.472,25.4 C148.272,25.6986667 149.098667,26.168 149.952,26.808 L149.952,26.808 L151.68,24.216 C150.762667,23.4053333 149.754667,22.8186667 148.656,22.456 C147.557333,22.0933333 146.378667,21.912 145.12,21.912 C144.181333,21.912 143.312,22.04 142.512,22.296 C141.712,22.552 141.013333,22.92 140.416,23.4 C139.818667,23.88 139.354667,24.4613333 139.024,25.144 C138.693333,25.8266667 138.528,26.5946667 138.528,27.448 C138.528,28.088 138.634667,28.6373333 138.848,29.096 C139.061333,29.5546667 139.402667,29.96 139.872,30.312 C140.341333,30.664 140.96,30.9786667 141.728,31.256 C142.496,31.5333333 143.424,31.8213333 144.512,32.12 C145.813333,32.4826667 146.752,32.8026667 147.328,33.08 C147.904,33.3573333 148.192,33.7946667 148.192,34.392 C148.192,34.9893333 147.946667,35.448 147.456,35.768 C146.965333,36.088 146.293333,36.248 145.44,36.248 C144.48,36.248 143.514667,36.0613333 142.544,35.688 C141.573333,35.3146667 140.576,34.7653333 139.552,34.04 L139.552,34.04 L137.952,36.728 C138.912,37.56 140.064,38.2 141.408,38.648 C142.752,39.096 144.128,39.32 145.536,39.32 Z" id="path-1"></path>
    </defs>
    <g id="Page-1" stroke="none" stroke-width="1" fill="none" fill-rule="evenodd">
        <g id="Starraters" fill-rule="nonzero">
            <use fill="#FFFFFF" xlink:href="#path-1"></use>
            <use fill="#333333" xlink:href="#path-1"></use>
        </g>
        <g id="Group" transform="translate(62.000000, 8.500000) scale(1, -1) translate(-62.000000, -8.500000) translate(28.000000, 0.000000)" fill="#0694A2">
            <polygon id="Star" points="40.5 14.25 37.2671811 15.9495935 37.8845946 12.3497967 35.2691892 9.80040653 38.8835906 9.27520327 40.5 6 42.1164094 9.27520327 45.7308108 9.80040653 43.1154054 12.3497967 43.7328189 15.9495935"></polygon>
            <polygon id="Star" points="51.5 12.25 48.2671811 13.9495935 48.8845946 10.3497967 46.2691892 7.80040653 49.8835906 7.27520327 51.5 4 53.1164094 7.27520327 56.7308108 7.80040653 54.1154054 10.3497967 54.7328189 13.9495935"></polygon>
            <polygon id="Star" points="62.5 8.25 59.2671811 9.94959347 59.8845946 6.34979673 57.2691892 3.80040653 60.8835906 3.27520327 62.5 0 64.1164094 3.27520327 67.7308108 3.80040653 65.1154054 6.34979673 65.7328189 9.94959347"></polygon>
            <polygon id="Star" points="28.5 14.25 25.2671811 15.9495935 25.8845946 12.3497967 23.2691892 9.80040653 26.8835906 9.27520327 28.5 6 30.1164094 9.27520327 33.7308108 9.80040653 31.1154054 12.3497967 31.7328189 15.9495935"></polygon>
            <polygon id="Star" points="16.5 12.25 13.2671811 13.9495935 13.8845946 10.3497967 11.2691892 7.80040653 14.8835906 7.27520327 16.5 4 18.1164094 7.27520327 21.7308108 7.80040653 19.1154054 10.3497967 19.7328189 13.9495935"></polygon>
            <polygon id="Star" points="5.5 8.25 2.26718111 9.94959347 2.88459458 6.34979673 0.26918916 3.80040653 3.88359056 3.27520327 5.5 0 7.11640944 3.27520327 10.7308108 3.80040653 8.11540542 6.34979673 8.73281889 9.94959347"></polygon>
        </g>
    </g>
</svg>